<svg viewBox="0 0 900 900" fill="none" xmlns="http://www.w3.org/2000/svg">
<rect x="709.684" y="729.139" width="75.3915" height="39.7351" fill="#911A39"/>
<rect x="113.588" y="729.139" width="75.3915" height="39.7351" fill="#911A39"/>
<path d="M37.6934 729.139H188.979L117.608 749.503C117.608 749.503 261.355 790.729 451.341 790.729C641.328 790.729 778.038 749.503 778.038 749.503L709.683 729.139H866.497L818.749 781.788L866.497 829.47L793.619 844.371V868.709C793.619 868.709 641.328 900 451.341 900C261.355 900 106.048 868.709 106.048 868.709V844.371L37.6934 829.47L81.923 781.788L37.6934 729.139Z" fill="#E31C42"/>
<path d="M182.574 820.446C184.783 821.379 186.359 822.77 187.301 824.62C188.265 826.455 188.459 828.685 187.883 831.311C187.045 835.134 184.961 837.729 181.63 839.096C178.321 840.449 173.539 840.541 167.283 839.372C165.773 839.09 164.108 838.705 162.288 838.216C160.464 837.745 158.813 837.251 157.336 836.733L165.816 798.042C167.584 798 169.469 798.064 171.471 798.234C173.496 798.389 175.451 798.642 177.339 798.995C180.97 799.674 183.861 800.613 186.011 801.815C188.18 803.019 189.645 804.53 190.408 806.346C191.192 808.147 191.306 810.316 190.75 812.853C190.288 814.96 189.343 816.708 187.916 818.097C186.489 819.485 184.709 820.268 182.574 820.446ZM177.196 805.411C175.542 805.102 173.962 804.928 172.455 804.888L170.235 815.016L174.792 815.868C176.589 816.204 178.051 816.281 179.175 816.101C180.3 815.921 181.163 815.487 181.762 814.799C182.38 814.115 182.822 813.166 183.088 811.951C183.362 810.701 183.348 809.657 183.045 808.819C182.746 807.964 182.123 807.262 181.177 806.713C180.249 806.168 178.921 805.734 177.196 805.411ZM170.77 833.581C172.837 833.967 174.525 834.078 175.833 833.913C177.142 833.748 178.156 833.306 178.875 832.585C179.612 831.867 180.128 830.838 180.421 829.499C180.848 827.552 180.559 826.01 179.554 824.874C178.568 823.741 176.78 822.933 174.191 822.45L168.826 821.447L166.389 832.567C167.889 832.977 169.349 833.315 170.77 833.581Z" fill="white"/>
<path d="M211.553 846.641L205.068 830.407L204.392 830.296C203.507 830.151 202.35 829.925 200.92 829.616L198.072 844.432L190.168 843.136L197.703 803.943C201.515 803.771 205.252 803.985 208.916 804.585C214.257 805.461 218.051 807.176 220.296 809.729C222.56 812.286 223.281 815.702 222.459 819.976C221.938 822.78 220.842 825.045 219.17 826.772C217.516 828.502 215.395 829.654 212.809 830.231L220.134 848.047L211.553 846.641ZM202.148 823.232C203.372 823.544 204.517 823.787 205.581 823.962C208.306 824.408 210.417 824.226 211.913 823.415C213.427 822.608 214.405 821.055 214.847 818.756C215.275 816.529 214.978 814.785 213.954 813.525C212.952 812.249 211.215 811.409 208.743 811.004C207.389 810.782 205.997 810.665 204.566 810.652L202.148 823.232Z" fill="white"/>
<path d="M244.298 851.513L243.303 840.346L230.866 838.571L226.266 848.94L218.419 847.82L236.065 809.342L248.014 811.047L252.254 852.649L244.298 851.513ZM233.773 832.006L242.652 833.273L241.07 815.485L233.773 832.006Z" fill="white"/>
<path d="M284.748 815.728L292.32 816.635L286.67 856.837L278.554 855.865L267.463 827.385L263.71 854.086L256.139 853.179L261.788 812.977L269.905 813.95L280.996 842.43L284.748 815.728Z" fill="white"/>
<path d="M302.032 858.427L305.875 825.266L294.71 824.163L295.541 816.997L325.978 820.004L325.147 827.17L313.982 826.067L310.139 859.228L302.032 858.427Z" fill="white"/>
<path d="M352.014 829.19L335.527 827.856L334.568 837.96L348.457 839.084L347.788 846.129L333.899 845.005L332.359 861.226L324.239 860.569L328.076 820.153L352.683 822.145L352.014 829.19Z" fill="white"/>
<path d="M366.617 864.225C361.506 863.912 357.62 861.988 354.96 858.454C352.317 854.921 351.253 849.588 351.766 842.457C352.279 835.325 354.098 830.169 357.224 826.99C360.367 823.812 364.495 822.38 369.605 822.693C374.716 823.007 378.593 824.93 381.235 828.463C383.877 831.996 384.942 837.328 384.429 844.46C383.916 851.592 382.096 856.747 378.971 859.927C375.846 863.106 371.728 864.539 366.617 864.225ZM367.103 857.467C368.819 857.573 370.292 857.223 371.523 856.42C372.756 855.597 373.755 854.193 374.522 852.207C375.307 850.203 375.822 847.514 376.065 844.14C376.317 840.637 376.207 837.828 375.736 835.71C375.266 833.575 374.48 832.024 373.376 831.059C372.272 830.093 370.853 829.557 369.119 829.451C367.385 829.345 365.902 829.703 364.669 830.525C363.438 831.329 362.439 832.733 361.671 834.738C360.905 836.724 360.4 839.405 360.157 842.779C359.906 846.281 360.014 849.1 360.484 851.236C360.955 853.353 361.742 854.894 362.846 855.86C363.95 856.825 365.369 857.361 367.103 857.467Z" fill="white"/>
<path d="M409.554 865.788L400.811 850.459L400.125 850.432C399.23 850.397 398.053 850.314 396.595 850.184L395.904 865.255L387.901 864.943L389.727 825.073C393.472 824.433 397.2 824.185 400.909 824.329C406.318 824.541 410.316 825.776 412.903 828.037C415.509 830.298 416.712 833.603 416.513 837.95C416.401 840.801 415.642 843.187 414.236 845.108C412.848 847.031 410.917 848.438 408.441 849.329L418.243 866.127L409.554 865.788ZM396.892 843.69C398.148 843.849 399.315 843.949 400.393 843.992C403.152 844.099 405.214 843.658 406.577 842.668C407.958 841.679 408.703 840.015 408.81 837.677C408.914 835.412 408.369 833.716 407.176 832.59C406.002 831.446 404.163 830.825 401.66 830.727C400.289 830.674 398.895 830.729 397.478 830.893L396.892 843.69Z" fill="white"/>
<path d="M431.528 866.85C428.474 866.799 425.324 866.563 422.076 866.143L422.858 826.322C426.567 825.597 430.149 825.264 433.605 825.322C440.169 825.432 445.027 827.205 448.178 830.641C451.348 834.078 452.864 839.343 452.725 846.437C452.63 851.264 451.784 855.191 450.189 858.219C448.611 861.247 446.272 863.466 443.172 864.878C440.09 866.271 436.208 866.928 431.528 866.85ZM433.774 860.057C436.077 860.095 437.988 859.688 439.504 858.836C441.021 857.965 442.183 856.521 442.991 854.504C443.818 852.47 444.265 849.734 444.332 846.297C444.399 842.878 444.06 840.138 443.314 838.077C442.586 835.998 441.482 834.498 440 833.577C438.518 832.656 436.644 832.177 434.376 832.139C433.115 832.118 431.952 832.199 430.887 832.382L430.347 859.889C431.571 859.983 432.713 860.039 433.774 860.057Z" fill="white"/>
<path d="M488.242 866.996C482.299 867.076 477.757 865.5 474.615 862.268C471.474 859.037 469.846 853.782 469.731 846.505C469.619 839.392 471.146 834.114 474.311 830.67C477.475 827.207 482.074 825.436 488.109 825.355C490.76 825.319 493.261 825.588 495.611 826.16L495.719 833.044C493.497 832.488 491.207 832.226 488.848 832.258C486.398 832.291 484.384 832.757 482.807 833.656C481.248 834.555 480.083 836.033 479.311 838.092C478.538 840.132 478.178 842.862 478.232 846.281C478.288 849.81 478.725 852.584 479.543 854.603C480.361 856.623 481.554 858.051 483.122 858.89C484.707 859.71 486.744 860.103 489.23 860.07C491.15 860.044 493.448 859.584 496.122 858.688L496.23 865.572C495.176 865.989 493.929 866.326 492.488 866.583C491.065 866.84 489.65 866.977 488.242 866.996Z" fill="white"/>
<path d="M500.112 866.288L498.448 825.725L506.59 825.44L507.25 841.528L521.204 841.041L520.544 824.952L528.658 824.669L530.322 865.232L522.208 865.515L521.509 848.495L507.556 848.983L508.254 866.003L500.112 866.288Z" fill="white"/>
<path d="M544.729 857.443L561.736 856.483L562.198 863.463L537.194 864.874L534.512 824.365L559.243 822.97L559.705 829.949L542.971 830.893L543.589 840.227L557.584 839.437L558.046 846.417L544.051 847.206L544.729 857.443Z" fill="white"/>
<path d="M575.44 862.999C573.889 863.115 572.236 863.101 570.48 862.957C568.723 862.813 567.13 862.538 565.699 862.132L565.1 855.3C568.457 856.113 571.649 856.406 574.676 856.18C579.181 855.843 581.293 854.08 581.013 850.892C580.938 850.036 580.71 849.32 580.329 848.743C579.948 848.167 579.345 847.671 578.519 847.256C577.692 846.823 576.555 846.422 575.11 846.053L572.295 845.356C569.384 844.602 567.043 843.337 565.272 841.563C563.519 839.787 562.515 837.441 562.259 834.527C562.036 831.976 562.409 829.748 563.38 827.842C564.351 825.935 565.916 824.416 568.074 823.282C570.249 822.13 572.996 821.429 576.315 821.181C577.847 821.067 579.332 821.047 580.77 821.123C582.227 821.197 583.517 821.358 584.64 821.604L585.239 828.435C582.899 827.913 580.379 827.753 577.68 827.955C572.538 828.34 570.105 830.117 570.383 833.287C570.455 834.106 570.662 834.788 571.003 835.331C571.344 835.873 571.881 836.347 572.614 836.75C573.364 837.134 574.396 837.497 575.711 837.839L578.498 838.538C581.709 839.362 584.208 840.651 585.996 842.406C587.8 844.141 588.836 846.53 589.103 849.573C589.325 852.105 588.934 854.344 587.929 856.289C586.942 858.215 585.389 859.761 583.27 860.928C581.15 862.077 578.54 862.767 575.44 862.999Z" fill="white"/>
<path d="M601.634 860.834C600.086 860.976 598.433 860.99 596.673 860.876C594.914 860.762 593.315 860.513 591.876 860.131L591.143 853.313C594.516 854.069 597.714 854.308 600.737 854.031C605.235 853.619 607.313 851.821 606.971 848.64C606.879 847.785 606.637 847.073 606.245 846.503C605.853 845.933 605.239 845.447 604.406 845.046C603.57 844.627 602.425 844.246 600.972 843.901L598.144 843.252C595.218 842.547 592.852 841.322 591.046 839.578C589.258 837.833 588.208 835.505 587.895 832.596C587.621 830.05 587.951 827.817 588.885 825.895C589.818 823.973 591.353 822.428 593.49 821.259C595.642 820.07 598.376 819.324 601.69 819.02C603.22 818.88 604.704 818.836 606.144 818.887C607.603 818.937 608.896 819.076 610.023 819.303L610.757 826.121C608.406 825.639 605.883 825.521 603.188 825.768C598.052 826.239 595.655 828.056 595.995 831.22C596.083 832.038 596.303 832.716 596.655 833.253C597.007 833.79 597.553 834.254 598.294 834.645C599.051 835.016 600.091 835.361 601.412 835.681L604.213 836.333C607.441 837.102 609.966 838.349 611.788 840.073C613.626 841.778 614.709 844.148 615.035 847.184C615.307 849.712 614.96 851.956 613.994 853.917C613.044 855.859 611.521 857.431 609.425 858.633C607.327 859.817 604.73 860.55 601.634 860.834Z" fill="white"/>
<path d="M650.135 855.661C644.233 856.36 639.522 855.27 636.003 852.391C632.484 849.512 630.223 844.468 629.222 837.259C628.243 830.213 629.118 824.817 631.846 821.069C634.572 817.303 638.931 815.066 644.924 814.356C647.557 814.044 650.077 814.05 652.485 814.372L653.432 821.192C651.154 820.872 648.844 820.851 646.501 821.129C644.068 821.417 642.122 822.089 640.663 823.146C639.222 824.2 638.242 825.789 637.725 827.912C637.205 830.017 637.181 832.764 637.651 836.151C638.137 839.647 638.91 842.353 639.97 844.272C641.03 846.19 642.391 847.483 644.053 848.151C645.73 848.8 647.804 848.978 650.274 848.685C652.181 848.459 654.41 847.763 656.961 846.595L657.908 853.415C656.91 853.938 655.71 854.402 654.308 854.808C652.925 855.211 651.534 855.495 650.135 855.661Z" fill="white"/>
<path d="M661.525 853.699L655.098 813.614L663.17 812.511L668.455 845.473L684.272 843.31L685.414 850.434L661.525 853.699Z" fill="white"/>
<path d="M702.987 848.188C699.609 848.723 696.726 848.616 694.336 847.866C691.947 847.115 689.993 845.657 688.475 843.492C686.974 841.324 685.877 838.37 685.181 834.63L680.622 810.116L688.642 808.845L693.371 834.276C693.913 837.188 694.864 839.203 696.224 840.32C697.585 841.437 699.421 841.812 701.733 841.446C704.045 841.079 705.631 840.161 706.492 838.692C707.371 837.22 707.54 835.028 706.998 832.115L702.269 806.684L710.126 805.439L714.684 829.953C715.38 833.692 715.412 836.815 714.781 839.322C714.168 841.825 712.889 843.795 710.944 845.233C708.998 846.67 706.346 847.655 702.987 848.188Z" fill="white"/>
<path d="M741.045 819.754C743.474 819.826 745.509 820.547 747.152 821.917C748.809 823.265 749.922 825.253 750.491 827.88C751.319 831.705 750.484 834.843 747.984 837.293C745.499 839.722 741.128 841.514 734.869 842.669C733.359 842.947 731.662 843.186 729.779 843.385C727.899 843.602 726.17 843.735 724.591 843.785L716.21 805.072C717.823 804.403 719.588 803.789 721.506 803.23C723.438 802.651 725.348 802.187 727.236 801.838C730.869 801.168 733.928 801.003 736.414 801.343C738.918 801.68 740.902 802.55 742.365 803.953C743.843 805.335 744.856 807.294 745.406 809.832C745.862 811.941 745.723 813.891 744.989 815.681C744.254 817.47 742.94 818.828 741.045 819.754ZM729.791 807.807C728.136 808.113 726.606 808.516 725.199 809.017L727.393 819.151L731.952 818.31C733.75 817.978 735.131 817.528 736.092 816.96C737.054 816.392 737.668 815.684 737.933 814.836C738.216 813.984 738.226 812.951 737.963 811.736C737.692 810.485 737.242 809.527 736.611 808.862C735.978 808.18 735.109 807.755 734.007 807.587C732.922 807.415 731.517 807.489 729.791 807.807ZM735.66 836.082C737.728 835.701 739.331 835.2 740.468 834.581C741.606 833.963 742.356 833.192 742.717 832.27C743.097 831.345 743.141 830.213 742.851 828.872C742.429 826.924 741.517 825.605 740.115 824.916C738.731 824.224 736.744 824.117 734.154 824.594L728.786 825.585L731.195 836.711C732.751 836.554 734.239 836.344 735.66 836.082Z" fill="white"/>
<mask id="mask0_718_51" style="mask-type:alpha" maskUnits="userSpaceOnUse" x="187" y="66" width="534" height="528">
<ellipse cx="454.357" cy="329.801" rx="266.383" ry="263.245" fill="#121212"/>
</mask>
<g mask="url(#mask0_718_51)">
<rect x="187.97" y="66.5601" width="530" height="530" fill="#FEF7FA"/>
<rect x="614.187" y="487.749" width="106.553" height="105.298" fill="#FEF7FA"/>
<rect x="507.634" y="487.749" width="106.553" height="105.298" fill="#C5C6C8"/>
<rect x="614.187" y="382.45" width="106.553" height="105.298" fill="#C5C6C8"/>
<rect x="507.634" y="382.45" width="106.553" height="105.298" fill="#FEF7FA"/>
<rect x="401.081" y="487.749" width="106.553" height="105.298" fill="#FEF7FA"/>
<rect x="294.527" y="487.749" width="106.553" height="105.298" fill="#C5C6C8"/>
<rect x="401.081" y="382.45" width="106.553" height="105.298" fill="#C5C6C8"/>
<rect x="294.527" y="382.45" width="106.553" height="105.298" fill="#FEF7FA"/>
<rect x="614.187" y="277.152" width="106.553" height="105.298" fill="#FEF7FA"/>
<rect x="507.634" y="277.152" width="106.553" height="105.298" fill="#C5C6C8"/>
<rect x="614.187" y="171.854" width="106.553" height="105.298" fill="#C5C6C8"/>
<rect x="507.634" y="171.854" width="106.553" height="105.298" fill="#FEF7FA"/>
<rect x="401.081" y="277.152" width="106.553" height="105.298" fill="#FEF7FA"/>
<rect x="294.527" y="277.152" width="106.553" height="105.298" fill="#C5C6C8"/>
<rect x="401.081" y="171.854" width="106.553" height="105.298" fill="#C5C6C8"/>
<rect x="187.974" y="487.749" width="106.553" height="105.298" fill="#FEF7FA"/>
<rect x="187.974" y="382.45" width="106.553" height="105.298" fill="#C5C6C8"/>
<rect x="187.974" y="277.152" width="106.553" height="105.298" fill="#FEF7FA"/>
<rect x="614.188" y="66.5562" width="106.553" height="105.298" fill="#FEF7FA"/>
<rect x="507.634" y="66.5562" width="106.553" height="105.298" fill="#C5C6C8"/>
<rect x="401.081" y="66.5562" width="106.553" height="105.298" fill="#FEF7FA"/>
<rect x="294.527" y="66.5562" width="106.553" height="105.298" fill="#C5C6C8"/>
<rect x="187.974" y="66.5562" width="106.553" height="105.298" fill="#FEF7FA"/>
<rect x="187.974" y="171.854" width="106.553" height="105.298" fill="#C5C6C8"/>
<rect x="294.527" y="171.854" width="106.553" height="105.298" fill="#FEF7FA"/>
<path d="M352.327 479.305H548.346V461.424H352.327V479.305Z" fill="black"/>
<path d="M345.793 490.232C345.793 502.649 324.181 518.046 324.181 518.046V546.854H576.491V518.046C576.491 518.046 555.382 502.152 555.382 490.232H345.793Z" fill="black"/>
<path d="M420.682 103.808C420.682 103.808 294.528 114.751 294.527 251.325C294.527 295.033 324.08 351.656 323.679 379.47C323.269 407.886 313.124 451.49 313.124 451.49C313.124 451.49 346.798 446.523 355.846 411.258L432.243 425.166V432.616L367.908 429.139L352.327 450.497H548.346L548.345 445.033L355.846 404.801C347.804 402.815 331.218 419.205 331.218 419.205C331.218 419.205 341.773 379.47 341.773 363.576V351.656C341.773 351.656 316.139 337.252 316.139 318.378L338.254 328.808V286.589C338.254 286.589 298.045 257.285 308.6 243.378L338.254 261.755V222.517C338.254 222.517 311.616 191.722 326.694 175.331L346.798 200.662L359.866 179.305C359.866 179.305 359.866 123.179 381.478 121.689V155.464L406.609 142.55C406.609 124.669 420.682 103.808 420.682 103.808Z" fill="black"/>
<path d="M560.911 428.146C556.89 429.139 355.846 379.47 355.846 379.47C355.846 379.47 358.359 347.185 360.872 347.185C363.385 347.185 360.872 375.993 360.872 375.993H374.442V362.086L556.89 404.305L565.434 393.874L578.335 404.305L560.911 428.146Z" fill="black"/>
<path fill-rule="evenodd" clip-rule="evenodd" d="M533.769 164.901C532.261 161.921 504.618 147.02 499.592 147.02C498.36 147.02 497.067 148.124 495.107 149.798C489.072 154.955 476.707 165.519 440.284 165.894C426.713 135.099 483.508 114.86 483.508 114.86C483.508 114.86 458.88 140.563 464.912 140.066C510.649 139.073 502.105 97.3511 501.1 97.3511C486.149 97.3511 474.668 108.963 468.838 114.86C466.828 116.894 465.489 118.247 464.912 118.212C416.159 115.232 421.185 153.477 421.185 153.477C421.185 153.477 352.83 170.51 352.83 249.338C352.83 296.027 366.903 325.828 366.903 325.828H375.525C376.052 325.616 377.297 322.413 375.525 313.207C372.224 296.055 366.903 268.408 366.903 249.338C366.903 180.779 403.091 175.331 403.091 175.331C403.091 175.331 386.505 192.715 385.499 249.338C384.494 305.96 393.541 334.768 398.065 337.252C402.588 339.735 545.329 372.02 545.329 372.02C545.329 372.02 476.471 301.49 479.989 279.139C479.989 279.139 470.581 281.719 463.906 281.623C457.221 281.526 447.32 279.139 447.32 279.139C449.481 312.696 470.488 326.13 487.461 334.572C498.122 339.874 506.399 343.991 505.623 351.656C397.059 332.781 411.132 240.397 411.132 240.397C411.132 240.397 455.362 261.258 469.938 261.258C505.12 261.258 515.675 227.98 526.23 227.98C536.786 227.98 548.344 243.378 548.344 243.378C558.899 255.298 573.978 250.828 573.978 250.828C574.48 271.689 538.795 250.331 533.769 250.331C528.743 250.331 501.602 271.192 501.602 271.192C501.602 271.192 542.816 268.212 555.381 274.172C567.946 280.133 574.983 286.589 574.983 286.589C589.056 263.742 608.658 273.179 608.658 253.311C608.658 237.914 563.605 215.341 548.345 196.689C537.133 178.819 535.811 172.522 535.015 168.729C534.704 167.252 534.474 166.154 533.769 164.901ZM477.98 187.748C479.991 186.755 509.644 190.729 515.173 205.629C507.87 206.248 497.044 207.119 488.5 205.629C477.443 198.179 475.969 188.742 477.98 187.748Z" fill="black"/>
</g>
<path d="M470.44 701.324C470.44 712.296 461.439 721.191 450.336 721.191C439.232 721.191 430.231 712.296 430.231 701.324C430.231 690.351 439.232 681.456 450.336 681.456C461.439 681.456 470.44 690.351 470.44 701.324Z" fill="#E31C42"/>
<path d="M410.126 683.443C404.598 632.284 367.907 611.92 309.102 600.992C326.19 652.151 373.436 686.423 410.126 683.443Z" fill="#E31C42"/>
<path d="M422.072 705.768C375.373 683.022 338.338 702.767 297.543 746.026C350.425 759.118 404.997 737.998 422.072 705.768Z" fill="#E31C42"/>
<path d="M331.513 689.286C291.106 656.843 250.553 667.95 201.041 701.154C249.65 725.546 307.609 716.954 331.513 689.286Z" fill="#E31C42"/>
<path d="M294.545 657.841C315.744 610.85 294.351 575.039 249.037 536.423C237.836 589.148 261.296 642.222 294.545 657.841Z" fill="#E31C42"/>
<path d="M259.753 659.724C229.328 617.974 187.247 618.224 130.677 637.489C171.147 673.586 229.364 680.259 259.753 659.724Z" fill="#E31C42"/>
<path d="M184.253 613.322C163.903 565.965 122.805 557.029 63.326 563.48C94.7356 607.514 150.026 626.721 184.253 613.322Z" fill="#E31C42"/>
<path d="M210.613 614.027C244.785 575.211 234.917 534.785 203.004 484.766C176.698 531.954 183.435 589.487 210.613 614.027Z" fill="#E31C42"/>
<path d="M142.146 559.548C184.562 529.714 184.544 488.128 165.363 432.117C128.612 471.91 121.536 529.403 142.146 559.548Z" fill="#E31C42"/>
<path d="M112.582 465.191C157.056 438.442 160.058 396.962 144.995 339.736C105.449 376.818 94.2149 433.661 112.582 465.191Z" fill="#E31C42"/>
<path d="M85.4543 370.499C135.969 358.045 151.33 319.328 154.187 260.265C105.263 284.034 77.4168 334.996 85.4543 370.499Z" fill="#E31C42"/>
<path d="M108.742 258.467C160.788 257.133 184.277 222.629 200.026 165.583C147.051 178.304 108.685 222.086 108.742 258.467Z" fill="#E31C42"/>
<path d="M137.894 171.32C189.804 167.379 211.493 131.743 224.294 73.9805C172.04 89.3395 135.97 134.989 137.894 171.32Z" fill="#E31C42"/>
<path d="M123.185 553.969C113.029 503.507 74.6358 486.482 15.075 480.818C36.7441 530.254 86.9132 560.193 123.185 553.969Z" fill="#E31C42"/>
<path d="M103.737 484.651C96.7217 433.67 59.4536 414.357 0.354492 405.106C18.9252 455.758 67.1485 488.672 103.737 484.651Z" fill="#E31C42"/>
<path d="M79.3438 414.741C91.2008 364.643 63.3611 333.458 11.4944 303.974C10.5504 357.84 43.7121 405.594 79.3438 414.741Z" fill="#E31C42"/>
<path d="M70.63 324.125C100.234 281.802 85.8898 242.707 48.5584 196.495C27.712 246.275 40.8659 302.714 70.63 324.125Z" fill="#E31C42"/>
<path d="M99.1319 223.721C136.494 187.89 130.111 146.786 102.579 94.286C72.341 139.113 74.1455 197.003 99.1319 223.721Z" fill="#E31C42"/>
<path d="M490.582 683.443C496.111 632.284 532.801 611.92 591.607 600.992C574.518 652.151 527.273 686.423 490.582 683.443Z" fill="#E31C42"/>
<path d="M478.636 705.768C525.335 683.022 562.371 702.767 603.165 746.026C550.283 759.118 495.712 737.998 478.636 705.768Z" fill="#E31C42"/>
<path d="M569.196 689.286C609.603 656.843 650.156 667.95 699.668 701.154C651.059 725.546 593.1 716.954 569.196 689.286Z" fill="#E31C42"/>
<path d="M606.164 657.841C584.965 610.85 606.358 575.039 651.672 536.423C662.873 589.148 639.413 642.222 606.164 657.841Z" fill="#E31C42"/>
<path d="M640.956 659.724C671.381 617.974 713.462 618.224 770.032 637.489C729.562 673.586 671.345 680.259 640.956 659.724Z" fill="#E31C42"/>
<path d="M716.456 613.322C736.806 565.965 777.904 557.029 837.383 563.48C805.973 607.514 750.683 626.721 716.456 613.322Z" fill="#E31C42"/>
<path d="M690.096 614.027C655.924 575.211 665.792 534.785 697.705 484.766C724.011 531.954 717.274 589.487 690.096 614.027Z" fill="#E31C42"/>
<path d="M758.563 559.548C716.147 529.714 716.165 488.128 735.346 432.117C772.097 471.91 779.173 529.403 758.563 559.548Z" fill="#E31C42"/>
<path d="M788.127 465.191C743.653 438.442 740.651 396.962 755.714 339.736C795.261 376.818 806.495 433.661 788.127 465.191Z" fill="#E31C42"/>
<path d="M815.255 370.499C764.74 358.045 749.38 319.328 746.522 260.265C795.446 284.034 823.293 334.996 815.255 370.499Z" fill="#E31C42"/>
<path d="M791.967 258.467C739.921 257.133 716.431 222.629 700.683 165.583C753.658 178.304 792.024 222.086 791.967 258.467Z" fill="#E31C42"/>
<path d="M762.815 171.32C710.905 167.379 689.216 131.743 676.416 73.9805C728.67 89.3395 764.739 134.989 762.815 171.32Z" fill="#E31C42"/>
<path d="M777.524 553.969C787.68 503.507 826.073 486.482 885.634 480.818C863.965 530.254 813.796 560.193 777.524 553.969Z" fill="#E31C42"/>
<path d="M796.972 484.651C803.987 433.67 841.255 414.357 900.354 405.106C881.784 455.758 833.56 488.672 796.972 484.651Z" fill="#E31C42"/>
<path d="M821.366 414.741C809.509 364.643 837.348 333.458 889.215 303.974C890.159 357.84 856.997 405.594 821.366 414.741Z" fill="#E31C42"/>
<path d="M830.079 324.125C800.475 281.802 814.82 242.707 852.151 196.495C872.998 246.275 859.844 302.714 830.079 324.125Z" fill="#E31C42"/>
<path d="M801.578 223.721C764.215 187.89 770.598 146.786 798.13 94.286C828.368 139.113 826.564 197.003 801.578 223.721Z" fill="#E31C42"/>
<path d="M361.515 64.7545L377.8 59.7571L379.369 66.5738L355.426 73.9209L346.324 34.3574L370.004 27.0908L371.572 33.9075L355.55 38.8243L357.647 47.94L371.047 43.8278L372.615 50.6445L359.215 54.7566L361.515 64.7545Z" fill="white"/>
<path d="M392.413 64.2043C390.891 64.5191 389.258 64.7169 387.515 64.7976C385.772 64.8784 384.18 64.8065 382.741 64.582L381.69 57.8054C385.058 58.1905 388.229 58.0758 391.201 57.461C395.625 56.5462 397.591 54.5076 397.101 51.3451C396.969 50.4958 396.696 49.8063 396.281 49.2766C395.866 48.7469 395.237 48.3268 394.395 48.0162C393.549 47.6875 392.4 47.4309 390.948 47.2462L388.123 46.9072C385.199 46.5235 382.803 45.5549 380.936 44.0014C379.087 42.4442 377.938 40.2199 377.49 37.3285C377.097 34.7986 377.316 32.5152 378.147 30.4785C378.977 28.4418 380.419 26.7168 382.473 25.3035C384.542 23.8684 387.207 22.8138 390.466 22.1398C391.97 21.8287 393.435 21.6191 394.86 21.5109C396.302 21.399 397.586 21.3946 398.711 21.4977L399.762 28.2744C397.417 28.0506 394.919 28.2128 392.269 28.7609C387.219 29.8053 384.937 31.8997 385.425 35.0441C385.551 35.8573 385.801 36.5143 386.174 37.0153C386.547 37.5162 387.109 37.9222 387.86 38.2333C388.626 38.5225 389.669 38.7544 390.99 38.9289L393.788 39.2734C397.012 39.6882 399.566 40.6615 401.448 42.1932C403.346 43.7031 404.529 45.967 404.996 48.9849C405.386 51.4968 405.15 53.7929 404.29 55.8731C403.445 57.9316 402.016 59.6819 400.003 61.1239C397.988 62.5479 395.458 63.5747 392.413 64.2043Z" fill="white"/>
<path d="M419.584 59.12L416.884 25.8465L405.73 27.0538L405.147 19.8632L435.554 16.5719L436.137 23.7624L424.984 24.9698L427.684 58.2433L419.584 59.12Z" fill="white"/>
<path d="M463.81 16.5079L468.774 16.627L468.051 57.3548L459.906 57.1594L460.458 26.0856L453.688 30.3407L453.823 22.7436L463.81 16.5079Z" fill="white"/>
<path d="M489.973 17.9668C494.337 18.4391 497.621 20.3483 499.825 23.6943C502.048 27.0423 502.879 32.1704 502.318 39.0784C501.71 46.5697 499.717 51.9253 496.338 55.145C492.977 58.3667 488.451 59.6696 482.76 59.0536C479.888 58.7427 477.634 58.1585 475.997 57.3011L476.53 50.7394C477.573 51.22 478.606 51.5984 479.629 51.8747C480.672 52.1346 481.829 52.3335 483.102 52.4712C486.356 52.8235 488.881 52.113 490.675 50.3398C492.488 48.5686 493.636 45.4935 494.12 41.1146C493.134 41.7433 492.006 42.1912 490.737 42.4584C489.488 42.7093 488.191 42.762 486.845 42.6164C484.718 42.3861 482.826 41.7492 481.168 40.7056C479.512 39.6437 478.239 38.1545 477.349 36.2378C476.459 34.3211 476.123 32.0231 476.34 29.3438C476.558 26.6644 477.28 24.4258 478.508 22.6281C479.736 20.8303 481.336 19.5417 483.306 18.7621C485.297 17.9662 487.519 17.7011 489.973 17.9668ZM483.728 29.84C483.558 31.9361 483.94 33.5496 484.876 34.6806C485.831 35.7952 487.172 36.446 488.899 36.633C489.917 36.7432 490.912 36.6854 491.884 36.4597C492.856 36.2339 493.751 35.8251 494.57 35.2334C494.696 32.5442 494.566 30.4156 494.18 28.8476C493.795 27.2615 493.2 26.1214 492.394 25.4274C491.607 24.7354 490.604 24.3234 489.386 24.1916C487.877 24.0283 486.598 24.4139 485.551 25.3486C484.504 26.265 483.897 27.7621 483.728 29.84Z" fill="white"/>
<path d="M527.975 58.9623L526.897 66.0123L504.132 61.3701L504.824 56.8418L516.002 45.001C517.808 43.0952 519.157 41.4037 520.048 39.9263C520.96 38.4346 521.523 36.9837 521.739 35.5737C522.021 33.7299 521.7 32.2663 520.775 31.183C519.85 30.0998 518.268 29.3298 516.029 28.8731C513.412 28.3396 510.932 28.3091 508.587 28.7816L509.623 22.0028C510.726 21.7989 512.085 21.7312 513.701 21.7997C515.316 21.8681 516.832 22.0467 518.247 22.3353C522.512 23.2049 525.643 24.7847 527.639 27.0745C529.653 29.3679 530.357 32.5031 529.749 36.4801C529.442 38.4866 528.761 40.4634 527.706 42.4106C526.669 44.3613 525.077 46.4321 522.931 48.6229L515.423 56.4028L527.975 58.9623Z" fill="white"/>
<path d="M543.854 71.837C539.48 70.5077 536.542 67.8803 535.042 63.9546C533.542 60.0289 533.594 54.5447 535.198 47.5017C536.807 40.441 539.098 35.6373 542.073 33.0906C545.052 30.5261 548.729 29.9085 553.103 31.2377C557.477 32.567 560.415 35.1944 561.915 39.1201C563.419 43.0279 563.367 48.5122 561.759 55.573C560.154 62.6159 557.863 67.4196 554.884 69.9841C551.905 72.5486 548.228 73.1662 543.854 71.837ZM545.359 65.2309C546.619 65.6137 547.746 65.5084 548.742 64.915C549.76 64.3091 550.695 63.0777 551.548 61.2208C552.423 59.3514 553.252 56.6961 554.036 53.2549C554.82 49.8137 555.23 47.0308 555.265 44.9062C555.321 42.7691 555.034 41.1566 554.403 40.0687C553.793 38.9682 552.858 38.2266 551.598 37.8438C550.338 37.461 549.2 37.5725 548.182 38.1785C547.187 38.7719 546.251 40.0033 545.376 41.8727C544.502 43.7421 543.674 46.3884 542.894 49.8118C542.11 53.253 541.699 56.0449 541.66 58.1873C541.625 60.3119 541.912 61.9244 542.522 63.0248C543.154 64.1127 544.099 64.8481 545.359 65.2309Z" fill="white"/>
</svg>
